HIERARCHY
ROOT Hips
{
    OFFSET 0.000000 0.000000 0.000000
    CHANNELS 6 Xposition Yposition Zposition Zrotation Xrotation Yrotation
    JOINT Spine
    {
        OFFSET -0.000000 14.517291 0.000000
        CHANNELS 3 Zrotation Xrotation Yrotation
        JOINT Spine1
        {
            OFFSET -0.000000 37.558300 0.000000
            CHANNELS 3 Zrotation Xrotation Yrotation
            JOINT Neck
            {
                OFFSET -0.000000 37.404057 3.400369
                CHANNELS 3 Zrotation Xrotation Yrotation
                JOINT Head
                {
                    OFFSET -0.000000 24.785618 -3.540803
                    CHANNELS 3 Zrotation Xrotation Yrotation
                    End Site
                    {
                        OFFSET -0.000000 35.408028 0.000000
                    }
                }
            }
            JOINT LeftShoulder
            {
                OFFSET 6.992933 33.973492 -0.192664
                CHANNELS 3 Zrotation Xrotation Yrotation
                JOINT LeftArm
                {
                    OFFSET 21.527611 0.000000 0.000000
                    CHANNELS 3 Zrotation Xrotation Yrotation
                    JOINT LeftForeArm
                    {
                        OFFSET 56.353916 0.000000 0.000000
                        CHANNELS 3 Zrotation Xrotation Yrotation
                        JOINT LeftHand
                        {
                            OFFSET 47.774071 0.000000 0.000000
                            CHANNELS 3 Zrotation Xrotation Yrotation
                            End Site
                            {
                                OFFSET 26.556021 0.000000 0.000000
                            }
                        }
                    }
                }
            }
            JOINT RightShoulder
            {
                OFFSET -7.065357 33.973492 -0.192664
                CHANNELS 3 Zrotation Xrotation Yrotation
                JOINT RightArm
                {
                    OFFSET -21.527611 0.000000 0.000000
                    CHANNELS 3 Zrotation Xrotation Yrotation
                    JOINT RightForeArm
                    {
                        OFFSET -56.353916 0.000000 0.000000
                        CHANNELS 3 Zrotation Xrotation Yrotation
                        JOINT RightHand
                        {
                            OFFSET -47.774071 0.000000 0.000000
                            CHANNELS 3 Zrotation Xrotation Yrotation
                            End Site
                            {
                                OFFSET -26.556021 0.000000 0.000000
                            }
                        }
                    }
                }
            }
        }
    }
    JOINT LeftUpLeg
    {
        OFFSET 17.704014 0.000000 0.000000
        CHANNELS 3 Zrotation Xrotation Yrotation
        JOINT LeftLeg
        {
            OFFSET -0.000000 -81.181816 0.000000
            CHANNELS 3 Zrotation Xrotation Yrotation
            JOINT LeftFoot
            {
                OFFSET -0.000000 -62.821102 0.000000
                CHANNELS 3 Zrotation Xrotation Yrotation
                JOINT LeftToeBase
                {
                    OFFSET -0.000000 -11.507608 26.556021
                    CHANNELS 3 Zrotation Xrotation Yrotation
                    End Site
                    {
                        OFFSET -0.000000 0.000000 7.081605
                    }
                }
            }
        }
    }
    JOINT RightUpLeg
    {
        OFFSET -17.704014 0.000000 0.000000
        CHANNELS 3 Zrotation Xrotation Yrotation
        JOINT RightLeg
        {
            OFFSET -0.000000 -81.181816 0.000000
            CHANNELS 3 Zrotation Xrotation Yrotation
            JOINT RightFoot
            {
                OFFSET -0.000000 -62.821102 0.000000
                CHANNELS 3 Zrotation Xrotation Yrotation
                JOINT RightToeBase
                {
                    OFFSET -0.000000 -11.507608 26.556021
                    CHANNELS 3 Zrotation Xrotation Yrotation
                    End Site
                    {
                        OFFSET -0.000000 0.000000 7.081605
                    }
                }
            }
        }
    }
}
MOTION
Frames:    4
Frame Time:    0.008333
-0.555480    155.113571    -117.999565    -5.020534    -1.097725    17.720528    3.339111    -3.325019    3.420624    -4.198543    2.708166    1.205653    6.144737    -0.234904    -14.496380    10.534387    1.959437    -14.734195    4.233584    8.243004    -13.869436    -36.397190    23.070601    -42.935318    -10.124742    -2.872938    -118.375366    4.452346    -19.791071    -4.516837    -15.225183    -2.985381    -2.522109    23.194338    -21.883717    58.862816    -12.697717    -13.092883    49.214073    1.612964    -6.855704    33.901176    10.204685    0.784374    -21.405048    -7.431952    32.988251    -33.836906    19.573561    -24.758781    41.785904    0.000000    0.000000    0.000000    -2.499065    -29.021101    0.970517    11.726548    22.223324    -12.824449    -1.686309    9.564706    -7.313042    0.000000    0.000000    0.000000    
-0.784994    155.191986    -117.559433    -4.991929    -1.177360    18.203821    3.306847    -3.293821    3.253212    -4.201823    2.673715    1.149194    6.072728    -0.188309    -14.588751    10.630634    1.951850    -14.804979    4.230825    8.283999    -13.899151    -36.325966    23.100555    -42.984573    -10.181953    -2.848087    -118.441940    4.808452    -19.890749    -4.393364    -15.218428    -2.932789    -2.586427    23.212469    -21.932674    58.816505    -12.677831    -13.071307    49.233742    1.697545    -6.814160    33.933762    10.448428    1.024612    -21.467388    -7.314966    32.609566    -34.060131    19.483614    -24.692144    41.717770    0.000000    0.000000    0.000000    -2.530824    -28.829695    0.726115    11.713722    22.383656    -12.740650    -1.753910    9.259340    -7.593133    0.000000    0.000000    0.000000    
-0.976644    155.272232    -117.127296    -4.951057    -1.223022    18.739384    3.309613    -3.350392    3.067142    -4.289380    2.723446    1.090528    6.057737    -0.124574    -14.694581    10.711761    1.896045    -14.894959    4.251925    8.297245    -13.981120    -36.277836    23.137552    -43.008270    -10.170432    -2.946265    -118.420700    4.741969    -19.955753    -4.407796    -15.201612    -2.956705    -2.674867    23.220181    -21.880617    58.730759    -12.695517    -13.083424    49.263359    1.662105    -6.824881    33.945183    10.629948    1.196060    -21.537405    -7.043512    32.348892    -34.513290    19.356331    -24.682510    41.703072    0.000000    0.000000    0.000000    -2.632994    -28.666744    0.465536    11.736725    22.551424    -12.657728    -1.766118    8.933184    -7.973789    0.000000    0.000000    0.000000    
-1.200894    155.352448    -116.692558    -4.930282    -1.256171    19.297657    3.301666    -3.397231    2.887498    -4.348983    2.761190    1.033088    6.053667    -0.127620    -14.780684    10.739861    1.865096    -14.978321    4.285739    8.321859    -14.038815    -36.224167    23.169481    -43.044270    -9.888926    -3.300763    -118.268677    3.685934    -19.757761    -4.806885    -15.166488    -2.921850    -2.789917    23.215849    -21.937527    58.675861    -12.672710    -13.059901    49.302208    1.648661    -6.811543    33.857212    10.872447    1.363612    -21.592592    -6.907916    31.968063    -34.720486    19.232138    -24.646723    41.600719    0.000000    0.000000    0.000000    -2.710354    -28.494671    0.172301    11.744537    22.673086    -12.574118    -1.751962    8.562056    -8.374430    0.000000    0.000000    0.000000    
